<?xml version="1.0" encoding="UTF-8" standalone="no"?>
<!-- Created with Inkscape (http://www.inkscape.org/) -->

<svg
   width="38"
   height="38.000004"
   viewBox="0 0 38 38.000005"
   version="1.1"
   id="svg11572"
   xmlns="http://www.w3.org/2000/svg"
   xmlns:svg="http://www.w3.org/2000/svg">
  <defs
     id="defs11569" />
  <g
     id="layer1"
     transform="translate(-4.6528817,-6.1744332)">
    <path
       id="rect12669"
       style="fill:#000000;fill-opacity:1;stroke-width:2.923;stroke-linejoin:round;paint-order:markers fill stroke"
       d="m 7.575755,6.1744336 c -1.6193429,0 -2.9228733,1.3035303 -2.9228733,2.9228732 V 41.25156 c 0,1.619343 1.3035304,2.922873 2.9228733,2.922873 h 32.154253 c 1.619341,0 2.922872,-1.30353 2.922872,-2.922873 V 9.0973068 c 0,-1.6193429 -1.303531,-2.9228732 -2.922872,-2.9228732 z M 23.652881,20.425758 c 2.61458,0 4.748675,2.134095 4.748675,4.748675 0,2.61458 -2.134095,4.748675 -4.748675,4.748675 -2.61458,0 -4.748675,-2.134095 -4.748675,-4.748675 0,-2.61458 2.134095,-4.748675 4.748675,-4.748675 z m 0,0.678382 a 4.0702921,4.0702921 0 0 0 -4.070293,4.070293 4.0702921,4.0702921 0 0 0 4.070293,4.070293 4.0702921,4.0702921 0 0 0 4.070293,-4.070293 4.0702921,4.0702921 0 0 0 -4.070293,-4.070293 z m 0,0.678382 c 1.881331,0 3.391911,1.510581 3.391911,3.391911 0,1.881333 -1.51058,3.39191 -3.391911,3.39191 -1.881331,0 -3.391911,-1.510577 -3.391911,-3.39191 0,-1.88133 1.51058,-3.391911 3.391911,-3.391911 z" />
  </g>
</svg>
